<svg id="svg" version="1.1" xmlns="http://www.w3.org/2000/svg" xmlns:xlink="http://www.w3.org/1999/xlink"
     width="12"
     height="12" viewBox="0, 0, 400,400">
    <g id="svgg" transform="rotate(-45 200 200)">
        <path id="path0"
              d="M139.600 200.000 L 139.600 400.000 200.000 400.000 L 260.400 400.000 260.400 200.000 L 260.400 0.000 200.000 0.000 L 139.600 0.000 139.600 200.000 M247.102 46.356 C 247.177 70.372,247.082 79.460,246.753 79.856 C 246.383 80.303,242.210 80.400,223.351 80.400 L 200.400 80.400 200.400 86.600 L 200.400 92.800 223.171 92.800 C 250.253 92.800,247.200 91.904,247.200 99.855 C 247.200 107.943,248.273 107.200,236.586 107.200 L 226.800 107.200 226.800 113.400 L 226.800 119.600 236.520 119.600 C 243.547 119.600,246.373 119.733,246.720 120.080 C 247.226 120.586,247.431 131.733,246.957 132.967 C 246.740 133.534,244.305 133.600,223.557 133.600 L 200.400 133.600 200.400 140.000 L 200.400 146.400 223.320 146.400 C 240.613 146.400,246.358 146.518,246.720 146.880 C 247.226 147.386,247.431 158.533,246.957 159.767 C 246.745 160.321,245.468 160.400,236.757 160.400 L 226.800 160.400 226.800 166.793 L 226.800 173.186 236.900 173.293 L 247.000 173.400 247.000 180.000 L 247.000 186.600 223.700 186.703 L 200.400 186.806 200.400 193.400 L 200.400 199.994 223.700 200.097 L 247.000 200.200 247.000 206.800 L 247.000 213.400 236.900 213.507 L 226.800 213.614 226.800 220.007 L 226.800 226.400 236.757 226.400 C 245.468 226.400,246.745 226.479,246.957 227.033 C 247.091 227.381,247.200 230.355,247.200 233.643 L 247.200 239.620 246.174 240.010 C 245.552 240.246,236.343 240.400,222.774 240.400 L 200.400 240.400 200.400 246.800 L 200.400 253.200 223.557 253.200 C 244.305 253.200,246.740 253.266,246.957 253.833 C 247.537 255.343,247.216 265.926,246.571 266.571 C 246.035 267.108,244.539 267.200,236.371 267.200 L 226.800 267.200 226.800 273.400 L 226.800 279.600 236.586 279.600 C 245.852 279.600,246.394 279.641,246.786 280.374 C 247.225 281.194,247.370 291.891,246.957 292.967 C 246.740 293.534,244.305 293.600,223.557 293.600 L 200.400 293.600 200.400 300.000 L 200.400 306.400 223.557 306.400 C 244.305 306.400,246.740 306.466,246.957 307.033 C 247.271 307.852,247.264 318.322,246.948 319.500 L 246.707 320.400 236.753 320.400 L 226.800 320.400 226.800 326.557 C 226.800 333.983,225.551 333.200,237.390 333.200 C 248.360 333.200,247.200 332.372,247.200 340.204 C 247.200 348.086,250.243 347.200,223.171 347.200 L 200.400 347.200 200.400 353.597 L 200.400 359.994 223.700 360.097 L 247.000 360.200 247.000 373.400 L 247.000 386.600 200.100 386.702 L 153.200 386.803 153.200 200.000 L 153.200 13.197 200.100 13.298 L 247.000 13.400 247.102 46.356 M194.880 21.020 C 173.064 27.880,177.268 59.340,200.000 59.340 C 222.945 59.340,227.034 27.700,204.955 21.002 C 202.560 20.275,197.218 20.285,194.880 21.020 M204.116 34.563 C 209.964 39.023,205.959 47.725,198.568 46.616 C 193.424 45.845,191.432 38.903,195.283 35.166 C 197.654 32.865,201.542 32.599,204.116 34.563 "
              stroke="none" fill="#241c24" fill-rule="evenodd"/>
        <path id="path1"
              d="M154.000 200.000 L 154.000 386.400 200.000 386.400 L 246.000 386.400 246.000 373.403 L 246.000 360.406 222.900 360.303 L 199.800 360.200 199.690 353.893 C 199.533 344.925,196.330 346.000,223.214 346.000 L 246.000 346.000 246.000 340.007 L 246.000 334.014 236.300 333.907 L 226.600 333.800 226.491 326.707 L 226.382 319.614 236.091 319.507 L 245.800 319.400 245.910 313.300 L 246.021 307.200 223.053 307.200 C 202.479 307.200,200.060 307.134,199.843 306.567 C 199.709 306.219,199.600 303.264,199.600 300.000 C 199.600 296.736,199.709 293.781,199.843 293.433 C 200.060 292.866,202.478 292.800,223.043 292.800 L 246.000 292.800 246.000 286.800 L 246.000 280.800 236.833 280.800 C 225.123 280.800,226.400 281.711,226.400 273.357 L 226.400 266.400 236.200 266.400 L 246.000 266.400 246.000 260.200 L 246.000 254.000 223.008 254.000 L 200.015 254.000 199.793 253.100 C 199.671 252.605,199.623 249.410,199.686 246.000 L 199.800 239.800 222.910 239.697 L 246.020 239.593 245.910 233.297 L 245.800 227.000 236.100 226.893 L 226.400 226.786 226.400 219.993 L 226.400 213.200 236.200 213.200 L 246.000 213.200 246.000 206.803 L 246.000 200.406 222.900 200.303 L 199.800 200.200 199.800 193.400 L 199.800 186.600 222.900 186.497 L 246.000 186.394 246.000 179.997 L 246.000 173.600 236.191 173.600 L 226.381 173.600 226.491 166.700 L 226.600 159.800 236.300 159.693 L 246.000 159.586 246.000 153.393 L 246.000 147.200 223.043 147.200 C 202.478 147.200,200.060 147.134,199.843 146.567 C 199.526 145.743,199.526 134.257,199.843 133.433 C 200.060 132.866,202.478 132.800,223.043 132.800 L 246.000 132.800 246.000 126.600 L 246.000 120.400 236.191 120.400 L 226.382 120.400 226.491 113.300 L 226.600 106.200 236.300 106.093 L 246.000 105.986 246.000 99.993 L 246.000 94.000 223.047 94.000 L 200.093 94.000 199.852 93.100 C 199.536 91.922,199.529 81.052,199.843 80.233 C 200.060 79.666,202.478 79.600,223.043 79.600 L 246.000 79.600 246.000 46.600 L 246.000 13.600 200.000 13.600 L 154.000 13.600 154.000 200.000 M205.951 20.489 C 213.715 23.632,217.980 28.130,219.766 35.058 C 222.032 43.844,217.430 54.230,209.685 57.812 C 208.428 58.394,207.087 59.034,206.705 59.235 C 206.323 59.436,205.659 59.600,205.229 59.600 C 204.799 59.600,204.336 59.780,204.200 60.000 C 204.062 60.223,202.204 60.400,200.000 60.400 C 197.796 60.400,195.938 60.223,195.800 60.000 C 195.664 59.780,195.201 59.600,194.771 59.600 C 194.341 59.600,193.677 59.435,193.295 59.234 C 192.913 59.032,191.932 58.577,191.116 58.222 C 182.129 54.317,177.173 42.206,180.878 33.200 C 183.427 27.005,189.773 20.800,193.561 20.800 C 193.934 20.800,194.411 20.631,194.620 20.425 C 195.483 19.574,203.807 19.620,205.951 20.489 M196.955 34.762 C 191.587 38.036,193.744 46.000,200.000 46.000 C 206.363 46.000,208.445 37.519,202.799 34.600 C 201.195 33.770,198.458 33.846,196.955 34.762 "
              stroke="none" fill="#fbdb44" fill-rule="evenodd"/>
        <path id="path2"
              d="M153.798 200.000 C 153.798 302.630,153.844 344.615,153.900 293.300 C 153.956 241.985,153.956 158.015,153.900 106.700 C 153.844 55.385,153.798 97.370,153.798 200.000 M246.191 46.600 C 246.191 64.860,246.240 72.388,246.300 63.330 C 246.360 54.271,246.360 39.331,246.300 30.130 C 246.240 20.928,246.191 28.340,246.191 46.600 M199.305 19.887 C 199.914 19.979,200.814 19.977,201.305 19.882 C 201.797 19.787,201.300 19.711,200.200 19.714 C 199.100 19.717,198.697 19.795,199.305 19.887 M194.652 20.316 C 194.544 20.490,195.073 20.561,195.828 20.473 C 196.583 20.385,197.200 20.242,197.200 20.156 C 197.200 19.855,194.845 20.003,194.652 20.316 M202.833 20.143 C 202.925 20.222,203.720 20.397,204.600 20.532 C 205.690 20.699,206.009 20.655,205.600 20.395 C 205.053 20.046,202.445 19.809,202.833 20.143 M213.601 24.922 C 213.600 25.099,214.153 25.819,214.829 26.522 C 215.505 27.225,216.602 28.745,217.267 29.900 C 218.775 32.518,219.231 32.690,217.800 30.100 C 216.747 28.195,213.603 24.318,213.601 24.922 M184.400 26.886 C 182.758 28.923,182.581 29.520,184.128 27.800 C 184.919 26.920,185.574 26.065,185.583 25.900 C 185.609 25.439,185.477 25.549,184.400 26.886 M181.853 30.900 L 181.133 32.200 181.958 31.200 C 182.689 30.313,183.014 29.600,182.686 29.600 C 182.624 29.600,182.249 30.185,181.853 30.900 M200.200 33.972 C 202.637 34.287,203.618 34.803,205.002 36.498 C 205.586 37.214,205.887 37.440,205.669 37.000 C 204.655 34.950,202.300 33.579,199.926 33.656 L 198.200 33.713 200.200 33.972 M196.087 35.100 C 195.468 35.705,195.330 35.910,195.781 35.555 C 196.231 35.200,196.960 34.710,197.400 34.467 C 197.840 34.223,197.978 34.019,197.706 34.012 C 197.435 34.005,196.706 34.495,196.087 35.100 M219.872 37.000 C 219.999 38.100,220.169 39.075,220.251 39.167 C 220.532 39.482,220.320 36.999,219.980 36.000 C 219.751 35.326,219.716 35.651,219.872 37.000 M179.853 36.836 C 179.714 37.531,179.621 38.573,179.647 39.150 C 179.672 39.727,179.855 39.227,180.052 38.039 C 180.437 35.721,180.273 34.734,179.853 36.836 M206.114 40.200 C 206.117 41.300,206.195 41.703,206.287 41.095 C 206.379 40.486,206.377 39.586,206.282 39.095 C 206.187 38.603,206.111 39.100,206.114 40.200 M193.693 40.000 C 193.693 40.770,193.775 41.085,193.876 40.700 C 193.976 40.315,193.976 39.685,193.876 39.300 C 193.775 38.915,193.693 39.230,193.693 40.000 M179.640 41.433 C 179.662 42.075,179.833 43.050,180.020 43.600 C 180.249 44.274,180.284 43.949,180.128 42.600 C 179.869 40.350,179.579 39.659,179.640 41.433 M219.855 42.655 C 219.713 43.686,219.674 44.608,219.769 44.702 C 219.863 44.796,220.065 44.039,220.218 43.018 C 220.371 41.998,220.410 41.076,220.304 40.971 C 220.198 40.865,219.996 41.623,219.855 42.655 M194.314 43.004 C 194.541 43.447,195.148 44.166,195.663 44.602 C 196.567 45.366,196.565 45.352,195.606 44.197 C 194.013 42.279,193.879 42.155,194.314 43.004 M204.626 43.900 C 203.762 45.005,203.693 45.190,204.363 44.604 C 205.165 43.904,206.223 42.400,205.914 42.400 C 205.851 42.400,205.272 43.075,204.626 43.900 M180.412 45.600 C 180.412 45.930,180.587 46.470,180.800 46.800 C 181.145 47.333,181.188 47.333,181.188 46.800 C 181.188 46.470,181.013 45.930,180.800 45.600 C 180.455 45.067,180.412 45.067,180.412 45.600 M199.300 46.276 C 199.685 46.376,200.315 46.376,200.700 46.276 C 201.085 46.175,200.770 46.093,200.000 46.093 C 199.230 46.093,198.915 46.175,199.300 46.276 M181.800 49.200 C 182.141 49.860,182.511 50.400,182.621 50.400 C 182.731 50.400,182.541 49.860,182.200 49.200 C 181.859 48.540,181.489 48.000,181.379 48.000 C 181.269 48.000,181.459 48.540,181.800 49.200 M182.800 50.860 C 182.800 50.987,183.340 51.769,184.000 52.600 C 184.660 53.431,185.193 53.950,185.184 53.755 C 185.166 53.364,182.800 50.491,182.800 50.860 M215.601 52.598 C 215.086 53.148,214.739 53.664,214.832 53.746 C 214.924 53.828,215.419 53.378,215.930 52.747 C 217.076 51.335,216.874 51.244,215.601 52.598 M212.015 56.039 C 211.253 56.678,210.803 57.194,211.015 57.187 C 211.476 57.172,213.755 55.219,213.546 55.019 C 213.466 54.941,212.777 55.400,212.015 56.039 M195.824 60.038 C 195.947 60.237,196.787 60.400,197.690 60.400 C 199.721 60.400,199.552 60.181,197.300 59.893 C 196.330 59.769,195.696 59.832,195.824 60.038 M202.200 60.000 L 200.600 60.286 202.276 60.343 C 203.198 60.374,204.064 60.220,204.200 60.000 C 204.336 59.780,204.302 59.626,204.124 59.657 C 203.946 59.688,203.080 59.842,202.200 60.000 M199.762 86.600 C 199.762 90.120,199.824 91.506,199.898 89.681 C 199.972 87.856,199.972 84.976,199.897 83.281 C 199.822 81.586,199.761 83.080,199.762 86.600 M222.900 93.900 L 246.000 94.006 246.000 99.996 L 246.000 105.986 236.333 106.093 C 228.887 106.175,226.643 106.317,226.563 106.710 C 226.506 106.990,226.552 107.036,226.663 106.810 C 226.794 106.547,230.362 106.400,236.633 106.400 L 246.400 106.400 246.400 100.000 L 246.400 93.600 223.100 93.697 L 199.800 93.793 222.900 93.900 M246.088 126.497 L 246.000 132.794 222.900 132.900 L 199.800 133.007 222.913 133.103 C 241.522 133.181,246.064 133.099,246.224 132.682 C 246.333 132.398,246.367 129.473,246.300 126.182 L 246.177 120.200 246.088 126.497 M199.763 140.000 C 199.763 143.630,199.823 145.115,199.898 143.300 C 199.972 141.485,199.972 138.515,199.898 136.700 C 199.823 134.885,199.763 136.370,199.763 140.000 M223.100 147.098 L 246.000 147.206 246.000 153.403 L 246.000 159.600 236.424 159.600 C 231.157 159.600,226.764 159.735,226.661 159.900 C 226.559 160.065,230.963 160.149,236.448 160.087 L 246.420 159.973 246.310 153.487 L 246.200 147.000 223.200 146.995 L 200.200 146.990 223.100 147.098 M246.163 180.000 C 246.163 183.630,246.223 185.115,246.298 183.300 C 246.372 181.485,246.372 178.515,246.298 176.700 C 246.223 174.885,246.163 176.370,246.163 180.000 M199.777 186.916 C 199.668 187.200,199.629 190.305,199.689 193.816 L 199.800 200.200 222.890 200.303 L 245.980 200.406 246.106 206.903 L 246.232 213.400 246.216 206.800 L 246.200 200.200 223.082 200.097 L 199.964 199.993 200.082 193.196 C 200.198 186.498,200.169 185.894,199.777 186.916 M245.905 231.099 C 246.100 239.063,246.248 239.840,246.324 233.300 C 246.366 229.725,246.265 226.800,246.100 226.799 C 245.935 226.799,245.847 228.734,245.905 231.099 M199.867 239.867 C 199.533 240.200,199.512 252.504,199.843 253.367 C 200.060 253.934,202.477 254.000,223.033 254.000 L 245.980 254.000 246.101 260.300 L 246.222 266.600 246.311 260.103 L 246.400 253.606 223.300 253.503 L 200.200 253.400 200.200 246.500 C 200.200 242.705,200.185 239.600,200.167 239.600 C 200.148 239.600,200.013 239.720,199.867 239.867 M226.400 279.943 C 226.400 280.683,227.821 280.800,236.833 280.800 L 246.000 280.800 246.000 286.797 L 246.000 292.794 223.000 292.902 L 200.000 293.010 223.100 293.005 L 246.200 293.000 246.310 286.700 L 246.420 280.400 237.184 280.400 C 231.582 280.400,227.643 280.237,227.174 279.986 C 226.729 279.748,226.400 279.730,226.400 279.943 M199.763 300.000 C 199.763 303.630,199.823 305.115,199.898 303.300 C 199.972 301.485,199.972 298.515,199.898 296.700 C 199.823 294.885,199.763 296.370,199.763 300.000 M223.110 307.098 L 246.021 307.207 245.910 313.303 L 245.800 319.400 236.100 319.507 C 230.765 319.566,226.400 319.746,226.400 319.907 C 226.399 320.068,230.854 320.110,236.300 320.000 L 246.200 319.800 246.200 313.400 L 246.200 307.000 223.200 306.995 L 200.200 306.990 223.110 307.098 M226.563 333.290 C 226.643 333.683,228.887 333.825,236.333 333.907 L 246.000 334.014 246.000 340.007 L 246.000 346.000 223.224 346.000 C 210.697 346.000,200.364 346.135,200.262 346.300 C 200.160 346.465,210.499 346.552,223.238 346.494 L 246.400 346.387 246.400 339.994 L 246.400 333.600 236.633 333.600 C 230.362 333.600,226.794 333.453,226.663 333.190 C 226.552 332.965,226.506 333.010,226.563 333.290 M199.676 353.476 C 199.634 357.038,199.735 360.037,199.900 360.139 C 200.065 360.242,200.153 358.318,200.095 355.863 C 199.905 347.772,199.752 346.904,199.676 353.476 M246.179 373.400 C 246.179 380.660,246.233 383.686,246.299 380.125 C 246.365 376.564,246.366 370.624,246.299 366.925 C 246.233 363.226,246.179 366.140,246.179 373.400 "
              stroke="none" fill="#c4a43c" fill-rule="evenodd"/>
        <path id="path3"
              d="M176.900 13.500 C 189.605 13.559,210.395 13.559,223.100 13.500 C 235.805 13.441,225.410 13.393,200.000 13.393 C 174.590 13.393,164.195 13.441,176.900 13.500 M153.398 200.000 C 153.398 302.630,153.444 344.615,153.500 293.300 C 153.556 241.985,153.556 158.015,153.500 106.700 C 153.444 55.385,153.398 97.370,153.398 200.000 M246.591 46.600 C 246.591 64.860,246.640 72.388,246.700 63.330 C 246.760 54.271,246.760 39.331,246.700 30.130 C 246.640 20.928,246.591 28.340,246.591 46.600 M211.700 79.900 C 218.025 79.962,228.375 79.962,234.700 79.900 C 241.025 79.838,235.850 79.787,223.200 79.787 C 210.550 79.787,205.375 79.838,211.700 79.900 M211.300 93.500 C 217.625 93.562,227.975 93.562,234.300 93.500 C 240.625 93.438,235.450 93.387,222.800 93.387 C 210.150 93.387,204.975 93.438,211.300 93.500 M246.561 100.000 C 246.561 103.410,246.622 104.805,246.697 103.100 C 246.772 101.395,246.772 98.605,246.697 96.900 C 246.622 95.195,246.561 96.590,246.561 100.000 M231.500 106.699 C 234.195 106.768,238.605 106.768,241.300 106.699 C 243.995 106.630,241.790 106.573,236.400 106.573 C 231.010 106.573,228.805 106.630,231.500 106.699 M226.562 113.400 C 226.562 116.920,226.624 118.306,226.698 116.481 C 226.772 114.656,226.772 111.776,226.697 110.081 C 226.622 108.386,226.561 109.880,226.562 113.400 M231.500 120.299 C 234.195 120.368,238.605 120.368,241.300 120.299 C 243.995 120.230,241.790 120.173,236.400 120.173 C 231.010 120.173,228.805 120.230,231.500 120.299 M246.399 126.681 C 246.289 130.246,246.340 133.022,246.511 132.850 C 246.682 132.679,246.771 129.762,246.710 126.369 L 246.598 120.200 246.399 126.681 M246.399 153.319 L 246.598 159.800 246.710 153.631 C 246.771 150.238,246.682 147.321,246.511 147.150 C 246.340 146.978,246.289 149.754,246.399 153.319 M226.584 166.767 C 226.597 172.256,226.699 173.361,227.200 173.498 C 227.633 173.615,227.664 173.564,227.311 173.313 C 226.969 173.071,226.783 171.033,226.694 166.583 L 226.568 160.200 226.584 166.767 M246.489 179.897 L 246.400 186.394 223.300 186.500 L 200.200 186.607 223.313 186.703 C 241.904 186.781,246.464 186.699,246.623 186.283 C 246.732 185.999,246.767 182.984,246.700 179.583 L 246.578 173.400 246.489 179.897 M246.399 206.719 L 246.598 213.400 246.709 207.031 C 246.771 203.527,246.681 200.521,246.511 200.349 C 246.340 200.178,246.289 203.044,246.399 206.719 M226.563 220.000 C 226.563 223.630,226.623 225.115,226.698 223.300 C 226.772 221.485,226.772 218.515,226.698 216.700 C 226.623 214.885,226.563 216.370,226.563 220.000 M246.489 233.097 L 246.400 239.594 223.300 239.700 L 200.200 239.807 223.313 239.903 C 241.904 239.981,246.464 239.899,246.623 239.483 C 246.732 239.199,246.767 236.184,246.700 232.783 L 246.578 226.600 246.489 233.097 M211.700 253.500 C 218.025 253.562,228.375 253.562,234.700 253.500 C 241.025 253.438,235.850 253.387,223.200 253.387 C 210.550 253.387,205.375 253.438,211.700 253.500 M246.562 260.200 C 246.562 263.720,246.624 265.106,246.698 263.281 C 246.772 261.456,246.772 258.576,246.697 256.881 C 246.622 255.186,246.561 256.680,246.562 260.200 M231.500 266.699 C 234.195 266.768,238.605 266.768,241.300 266.699 C 243.995 266.630,241.790 266.573,236.400 266.573 C 231.010 266.573,228.805 266.630,231.500 266.699 M226.562 273.400 C 226.562 276.920,226.624 278.306,226.698 276.481 C 226.772 274.656,226.772 271.776,226.697 270.081 C 226.622 268.386,226.561 269.880,226.562 273.400 M237.019 280.296 L 246.438 280.415 246.319 286.788 C 246.254 290.294,246.340 293.022,246.511 292.850 C 246.682 292.679,246.772 289.762,246.711 286.369 L 246.600 280.200 237.100 280.189 L 227.600 280.178 237.019 280.296 M246.200 313.400 C 246.200 316.988,246.335 319.840,246.500 319.738 C 246.665 319.636,246.800 316.784,246.800 313.400 C 246.800 310.016,246.665 307.164,246.500 307.062 C 246.335 306.960,246.200 309.812,246.200 313.400 M226.562 326.600 C 226.562 330.120,226.624 331.506,226.698 329.681 C 226.772 327.856,226.772 324.976,226.697 323.281 C 226.622 321.586,226.561 323.080,226.562 326.600 M246.562 339.800 C 246.562 343.320,246.624 344.706,246.698 342.881 C 246.772 341.056,246.772 338.176,246.697 336.481 C 246.622 334.786,246.561 336.280,246.562 339.800 M211.700 346.700 C 218.025 346.762,228.375 346.762,234.700 346.700 C 241.025 346.638,235.850 346.587,223.200 346.587 C 210.550 346.587,205.375 346.638,211.700 346.700 M211.700 360.300 C 218.025 360.362,228.375 360.362,234.700 360.300 C 241.025 360.238,235.850 360.187,223.200 360.187 C 210.550 360.187,205.375 360.238,211.700 360.300 M246.494 373.298 L 246.400 386.397 200.100 386.500 L 153.800 386.603 200.113 386.702 C 237.036 386.780,246.464 386.698,246.618 386.297 C 246.725 386.020,246.761 380.035,246.700 372.997 L 246.588 360.200 246.494 373.298 "
              stroke="none" fill="#a08c36" fill-rule="evenodd"/>
        <path id="path4"
              d="M246.390 13.463 C 247.158 13.844,246.938 79.462,246.167 79.757 C 245.819 79.891,235.289 80.000,222.767 80.000 L 200.000 80.000 200.000 86.600 L 200.000 93.200 222.626 93.200 C 237.458 93.200,245.519 93.343,246.026 93.614 C 247.013 94.142,247.229 105.546,246.268 106.344 C 245.922 106.631,242.395 106.825,236.168 106.900 L 226.600 107.015 236.486 107.108 C 248.293 107.218,247.200 107.958,247.200 99.855 C 247.200 91.904,250.253 92.800,223.171 92.800 L 200.400 92.800 200.400 86.600 L 200.400 80.400 223.351 80.400 C 242.210 80.400,246.383 80.303,246.753 79.856 C 247.449 79.018,247.189 13.505,246.490 13.363 C 246.210 13.306,246.165 13.351,246.390 13.463 M199.300 20.276 C 199.685 20.376,200.315 20.376,200.700 20.276 C 201.085 20.175,200.770 20.093,200.000 20.093 C 199.230 20.093,198.915 20.175,199.300 20.276 M194.600 20.800 C 194.096 21.017,194.022 21.144,194.400 21.144 C 194.730 21.144,195.360 20.989,195.800 20.800 C 196.304 20.583,196.378 20.456,196.000 20.456 C 195.670 20.456,195.040 20.611,194.600 20.800 M204.200 20.800 C 204.640 20.989,205.270 21.144,205.600 21.144 C 205.978 21.144,205.904 21.017,205.400 20.800 C 204.960 20.611,204.330 20.456,204.000 20.456 C 203.622 20.456,203.696 20.583,204.200 20.800 M185.970 25.900 L 185.000 27.000 186.200 26.000 C 186.860 25.450,187.475 24.955,187.567 24.900 C 187.658 24.845,187.555 24.800,187.336 24.800 C 187.118 24.800,186.503 25.295,185.970 25.900 M213.880 26.200 C 214.650 26.970,215.387 27.600,215.518 27.600 C 215.650 27.600,215.146 26.970,214.400 26.200 C 213.654 25.430,212.916 24.800,212.762 24.800 C 212.607 24.800,213.110 25.430,213.880 26.200 M183.258 29.231 C 182.527 30.348,182.021 31.354,182.135 31.468 C 182.248 31.581,182.645 31.073,183.017 30.337 C 183.389 29.602,184.064 28.595,184.517 28.100 C 184.969 27.605,185.170 27.200,184.963 27.200 C 184.756 27.200,183.989 28.114,183.258 29.231 M199.100 33.482 C 199.595 33.578,200.405 33.578,200.900 33.482 C 201.395 33.387,200.990 33.309,200.000 33.309 C 199.010 33.309,198.605 33.387,199.100 33.482 M195.248 35.200 C 194.342 36.079,193.600 37.004,193.600 37.253 C 193.600 37.503,193.999 37.189,194.486 36.554 C 194.973 35.919,195.558 35.277,195.786 35.127 C 197.055 34.293,197.744 33.624,197.348 33.613 C 197.100 33.606,196.155 34.320,195.248 35.200 M203.200 34.400 C 203.750 34.830,204.317 35.186,204.461 35.191 C 204.604 35.196,205.096 35.785,205.554 36.500 C 206.012 37.215,206.390 37.575,206.393 37.300 C 206.402 36.682,203.274 33.597,202.652 33.609 C 202.403 33.614,202.650 33.970,203.200 34.400 M219.062 35.400 C 219.196 36.280,219.372 37.075,219.453 37.167 C 219.756 37.510,219.529 35.368,219.181 34.600 C 218.929 34.042,218.893 34.285,219.062 35.400 M180.565 35.270 C 180.066 36.772,180.209 44.140,180.753 45.018 C 181.231 45.788,181.235 45.788,181.048 45.000 C 180.566 42.976,180.425 39.184,180.750 37.000 C 181.133 34.426,181.062 33.769,180.565 35.270 M219.720 40.000 C 219.720 41.210,219.795 41.705,219.887 41.100 C 219.978 40.495,219.978 39.505,219.887 38.900 C 219.795 38.295,219.720 38.790,219.720 40.000 M193.293 40.000 C 193.293 40.770,193.375 41.085,193.476 40.700 C 193.576 40.315,193.576 39.685,193.476 39.300 C 193.375 38.915,193.293 39.230,193.293 40.000 M206.438 40.200 C 206.449 41.599,206.498 41.683,206.826 40.865 C 207.062 40.275,207.057 39.684,206.812 39.265 C 206.516 38.758,206.427 38.980,206.438 40.200 M193.600 42.722 C 193.600 43.460,196.713 46.400,197.494 46.400 C 197.927 46.400,197.705 46.137,196.903 45.700 C 196.197 45.315,195.164 44.380,194.609 43.622 C 194.054 42.865,193.600 42.460,193.600 42.722 M205.582 43.434 C 204.891 44.724,203.389 45.813,201.585 46.330 C 200.823 46.549,200.533 46.744,200.940 46.764 C 202.665 46.848,207.124 43.391,206.323 42.590 C 206.219 42.486,205.886 42.866,205.582 43.434 M219.260 43.667 C 219.227 44.254,219.096 45.064,218.970 45.467 C 218.752 46.160,218.765 46.161,219.195 45.490 C 219.446 45.099,219.577 44.289,219.486 43.690 L 219.320 42.600 219.260 43.667 M217.930 48.018 C 217.561 48.888,217.331 49.600,217.419 49.600 C 217.713 49.600,218.850 47.151,218.724 46.791 C 218.656 46.596,218.298 47.149,217.930 48.018 M182.008 48.514 C 181.983 49.531,185.506 53.950,187.698 55.650 C 188.993 56.655,188.817 56.400,186.961 54.585 C 185.620 53.273,183.958 51.300,183.269 50.200 C 182.579 49.100,182.012 48.341,182.008 48.514 M215.771 51.642 C 215.145 52.545,213.725 54.094,212.616 55.084 C 211.507 56.073,210.981 56.691,211.447 56.456 C 212.381 55.985,216.180 51.958,216.822 50.759 C 217.519 49.457,216.960 49.926,215.771 51.642 M190.600 57.600 C 191.260 58.037,191.980 58.395,192.200 58.396 C 192.420 58.396,192.011 58.038,191.290 57.599 C 189.592 56.563,189.036 56.564,190.600 57.600 M208.600 57.627 C 207.940 58.050,207.580 58.396,207.800 58.395 C 208.020 58.395,208.740 58.037,209.400 57.600 C 210.060 57.163,210.420 56.817,210.200 56.832 C 209.980 56.847,209.260 57.204,208.600 57.627 M197.500 59.753 C 198.976 59.965,201.024 59.965,202.500 59.753 C 204.772 59.426,204.543 59.394,200.000 59.394 C 195.457 59.394,195.228 59.426,197.500 59.753 M236.600 120.004 C 242.100 120.131,246.650 120.272,246.710 120.318 C 246.771 120.363,246.771 123.235,246.710 126.700 L 246.600 133.000 223.400 133.200 L 200.200 133.400 200.200 140.000 L 200.200 146.600 223.400 146.800 L 246.600 147.000 246.600 153.400 L 246.600 159.800 236.600 160.011 L 226.600 160.221 236.657 160.311 C 245.512 160.389,246.743 160.324,246.957 159.767 C 247.431 158.533,247.226 147.386,246.720 146.880 C 246.358 146.518,240.613 146.400,223.320 146.400 L 200.400 146.400 200.400 140.000 L 200.400 133.600 223.557 133.600 C 244.305 133.600,246.740 133.534,246.957 132.967 C 247.431 131.733,247.226 120.586,246.720 120.080 C 246.368 119.728,243.624 119.623,236.420 119.686 L 226.600 119.773 236.600 120.004 M237.218 173.496 L 246.837 173.614 246.719 180.188 C 246.653 183.804,246.740 186.622,246.911 186.451 C 247.081 186.279,247.171 183.273,247.111 179.769 L 247.000 173.400 237.300 173.389 L 227.600 173.378 237.218 173.496 M200.164 193.400 C 200.163 197.140,200.223 198.724,200.297 196.920 C 200.371 195.115,200.372 192.055,200.298 190.120 C 200.225 188.184,200.164 189.660,200.164 193.400 M246.719 206.612 L 246.837 213.186 236.919 213.303 L 227.000 213.421 237.000 213.410 L 247.000 213.400 247.111 207.031 C 247.171 203.527,247.081 200.521,246.911 200.349 C 246.740 200.178,246.653 202.996,246.719 206.612 M231.700 226.699 C 234.505 226.768,239.095 226.768,241.900 226.699 C 244.705 226.630,242.410 226.574,236.800 226.574 C 231.190 226.574,228.895 226.630,231.700 226.699 M246.799 233.481 C 246.689 237.046,246.740 239.822,246.911 239.650 C 247.082 239.479,247.171 236.562,247.110 233.169 L 246.998 227.000 246.799 233.481 M200.089 246.700 L 200.179 253.400 200.299 246.903 L 200.420 240.407 223.110 240.300 L 245.800 240.193 222.900 240.097 L 200.000 240.000 200.089 246.700 M246.320 253.680 C 246.642 254.002,246.829 256.138,246.888 260.180 L 246.975 266.200 247.103 260.600 C 247.237 254.678,247.079 253.200,246.312 253.200 C 245.953 253.200,245.955 253.315,246.320 253.680 M236.400 266.800 L 226.600 267.021 236.200 267.105 C 241.871 267.154,246.046 267.029,246.400 266.800 C 246.730 266.587,246.820 266.450,246.600 266.495 C 246.380 266.541,241.790 266.678,236.400 266.800 M230.000 279.880 C 238.404 280.164,246.709 280.174,246.539 279.900 C 246.437 279.735,241.908 279.637,236.476 279.682 C 231.044 279.727,228.130 279.816,230.000 279.880 M246.793 286.800 L 246.600 293.000 223.400 293.200 L 200.200 293.400 200.200 300.000 L 200.200 306.600 223.400 306.800 L 246.600 307.000 246.816 313.200 L 247.032 319.400 247.116 313.533 C 247.162 310.306,247.091 307.381,246.957 307.033 C 246.740 306.466,244.305 306.400,223.557 306.400 L 200.400 306.400 200.400 300.000 L 200.400 293.600 223.592 293.600 L 246.785 293.600 247.007 292.700 C 247.130 292.205,247.175 289.280,247.108 286.200 L 246.986 280.600 246.793 286.800 M236.600 320.000 L 226.600 320.221 236.700 320.311 C 243.226 320.368,246.800 320.258,246.800 320.000 C 246.800 319.780,246.755 319.640,246.700 319.689 C 246.645 319.739,242.100 319.878,236.600 320.000 M227.336 333.294 C 227.591 333.456,232.120 333.555,237.400 333.516 C 247.670 333.438,246.453 333.275,234.336 333.105 C 230.231 333.047,227.081 333.132,227.336 333.294 M246.800 339.920 C 246.800 343.991,246.650 345.990,246.320 346.320 C 245.958 346.682,240.213 346.800,222.920 346.800 L 200.000 346.800 200.089 353.500 L 200.179 360.200 200.299 353.700 L 200.420 347.200 223.181 347.200 C 243.340 347.200,246.015 347.128,246.571 346.571 C 247.175 345.968,247.583 334.000,247.000 334.000 C 246.890 334.000,246.800 336.664,246.800 339.920 M246.311 360.300 C 246.712 360.583,246.798 363.476,246.711 373.711 C 246.650 380.888,246.738 386.623,246.906 386.455 C 247.547 385.813,247.057 360.282,246.400 360.103 C 245.945 359.979,245.923 360.026,246.311 360.300 "
              stroke="none" fill="#8c7434" fill-rule="evenodd" />
    </g>
</svg>